<?xml version="1.0" standalone="no"?>
<!DOCTYPE svg PUBLIC "-//W3C//DTD SVG 20010904//EN"
 "http://www.w3.org/TR/2001/REC-SVG-20010904/DTD/svg10.dtd">
<svg version="1.0" xmlns="http://www.w3.org/2000/svg"
 width="1024.000000pt" height="1024.000000pt" viewBox="0 0 1024.000000 1024.000000"
 preserveAspectRatio="xMidYMid meet">
<metadata>
Created by potrace 1.11, written by Peter Selinger 2001-2013
</metadata>
<g transform="translate(0.000000,1024.000000) scale(0.100000,-0.100000)"
fill="#000000" stroke="none">
<path d="M0 5120 l0 -5120 5120 0 5120 0 0 5120 0 5120 -5120 0 -5120 0 0
-5120z m4549 2298 c127 -69 258 -154 411 -268 423 -314 815 -504 1203 -582
147 -30 452 -33 589 -5 255 51 562 171 812 315 49 29 90 52 92 52 5 0 26 -108
45 -235 83 -562 20 -1397 -166 -2201 -229 -986 -581 -1809 -917 -2145 -132
-132 -220 -172 -378 -172 -347 1 -909 252 -1605 718 -583 390 -1096 815 -1580
1306 -531 541 -832 988 -910 1354 -30 142 -12 267 59 410 63 126 153 240 304
387 341 330 896 671 1543 948 176 76 389 159 408 160 8 0 48 -19 90 -42z"/>
</g>
</svg>
