<svg width="472" height="680" viewBox="0 0 472 680" xmlns="http://www.w3.org/2000/svg" xmlns:xlink="http://www.w3.org/1999/xlink"><defs><linearGradient x1="90.763%" y1="-19.527%" x2="25.747%" y2="149.797%" id="a"><stop stop-color="#FFAB23" offset="0%"/><stop stop-color="#FFDD1C" offset="100%"/></linearGradient><filter x="-13.8%" y="-6.6%" width="127.6%" height="114%" filterUnits="objectBoundingBox" id="b"><feOffset in="SourceAlpha" result="shadowOffsetOuter1"/><feGaussianBlur stdDeviation="15" in="shadowOffsetOuter1" result="shadowBlurOuter1"/><feColorMatrix values="0 0 0 0 0.250980392 0 0 0 0 0.250980392 0 0 0 0 0.254901961 0 0 0 0.3 0" in="shadowBlurOuter1" result="shadowMatrixOuter1"/><feMerge><feMergeNode in="shadowMatrixOuter1"/><feMergeNode in="SourceGraphic"/></feMerge></filter><path d="M0 1.787C0 .914.716.207 1.584.207h.678c.347 0 .902 1.065.902 1.768v38.368c0 .712-.477 1.786-.902 1.786h-.678c-.875 0-1.584-.71-1.584-1.58V1.787z" id="c"/><path d="M0 1.787C0 .914.716.207 1.584.207h.678c.347 0 .902 1.065.902 1.768v38.368c0 .712-.477 1.786-.902 1.786h-.678c-.875 0-1.584-.71-1.584-1.58V1.787z" id="d"/><path d="M0 1.787C0 .914.716.207 1.584.207h.678c.347 0 .902 1.065.902 1.768v38.368c0 .712-.477 1.786-.902 1.786h-.678c-.875 0-1.584-.71-1.584-1.58V1.787z" id="e"/><path d="M0 1.588A1.59 1.59 0 0 1 1.584 0h.678c.347 0 .902 1.085.902 1.8v17.737c0 .726-.477 1.82-.902 1.82h-.678c-.875 0-1.584-.71-1.584-1.588V1.588z" id="f"/><path d="M1.582 229.267V639.12c0 25.333 20.541 45.874 45.88 45.874h106.94a2.945 2.945 0 0 1 2.008-.79h28.095c.776 0 1.483.3 2.01.79h106.938c25.34 0 45.88-20.539 45.88-45.874V175.468c-.922-1.312-1.582-5.09-1.582-11.52V143.35c0-6.43.66-10.21 1.582-11.52V45.873C339.333 20.541 318.792 0 293.453 0H47.463C22.122 0 1.581 20.539 1.581 45.874v36.508c.71 1.778 1.186 5.392 1.186 10.954 0 5.563-.477 9.177-1.186 10.955v27.923c.71 1.778 1.186 5.392 1.186 10.955v20.96c0 5.563-.477 9.177-1.186 10.955v11.313c.71 1.778 1.186 5.391 1.186 10.954v20.961c0 5.563-.477 9.176-1.186 10.955z" id="g"/><filter x="-2.1%" y="-.5%" width="104.1%" height="101.8%" filterUnits="objectBoundingBox" id="h"><feMorphology radius="2" in="SourceAlpha" result="shadowSpreadInner1"/><feGaussianBlur stdDeviation="1.5" in="shadowSpreadInner1" result="shadowBlurInner1"/><feOffset dx="2" dy="2" in="shadowBlurInner1" result="shadowOffsetInner1"/><feComposite in="shadowOffsetInner1" in2="SourceAlpha" operator="arithmetic" k2="-1" k3="1" result="shadowInnerInner1"/><feColorMatrix values="0 0 0 0 1 0 0 0 0 1 0 0 0 0 1 0 0 0 0.14 0" in="shadowInnerInner1"/></filter><path d="M7.119 46.269c0-22.714 18.418-41.128 41.13-41.128h244.416c22.716 0 41.131 18.42 41.131 41.128v592.456c0 22.714-18.418 41.128-41.13 41.128H48.25c-22.716 0-41.131-18.419-41.131-41.128V46.27z" id="i"/><linearGradient x1="50%" y1="0%" x2="50%" y2="100%" id="k"><stop stop-color="#FFF" stop-opacity=".1" offset="0%"/><stop stop-opacity=".5" offset="100%"/></linearGradient><path d="M0 39.548C0 17.706 17.71 0 39.548 0h244.418c21.841 0 39.547 17.708 39.547 39.548v592.847c0 21.842-17.71 39.548-39.547 39.548H39.548C17.706 671.943 0 654.235 0 632.395V39.548z" id="j"/><rect id="l" x="131.304" y="33.221" width="60.906" height="3.955" rx="1.977"/><filter x="-3.3%" y="-50.6%" width="106.6%" height="201.1%" filterUnits="objectBoundingBox" id="m"><feGaussianBlur stdDeviation="1" in="SourceAlpha" result="shadowBlurInner1"/><feOffset dy="2" in="shadowBlurInner1" result="shadowOffsetInner1"/><feComposite in="shadowOffsetInner1" in2="SourceAlpha" operator="arithmetic" k2="-1" k3="1" result="shadowInnerInner1"/><feColorMatrix values="0 0 0 0 0 0 0 0 0 0 0 0 0 0 0 0 0 0 0.1 0" in="shadowInnerInner1"/></filter><path d="M4.746 7.514a2.768 2.768 0 1 0 0-5.537 2.768 2.768 0 0 0 0 5.537z" id="n"/><filter x="-36.1%" y="-36.1%" width="172.2%" height="172.2%" filterUnits="objectBoundingBox" id="o"><feGaussianBlur stdDeviation="1" in="SourceAlpha" result="shadowBlurInner1"/><feOffset dy="2" in="shadowBlurInner1" result="shadowOffsetInner1"/><feComposite in="shadowOffsetInner1" in2="SourceAlpha" operator="arithmetic" k2="-1" k3="1" result="shadowInnerInner1"/><feColorMatrix values="0 0 0 0 0 0 0 0 0 0 0 0 0 0 0 0 0 0 0.1 0" in="shadowInnerInner1"/></filter><linearGradient x1="50%" y1="0%" x2="50%" y2="100%" id="p"><stop stop-color="#FFF" stop-opacity=".2" offset="0%"/><stop stop-color="#FFF" stop-opacity="0" offset="100%"/></linearGradient><rect id="q" width="359" height="112" rx="12"/><filter x="-8.2%" y="-22.8%" width="116.4%" height="152.7%" filterUnits="objectBoundingBox" id="r"><feMorphology radius=".5" operator="dilate" in="SourceAlpha" result="shadowSpreadOuter1"/><feOffset dy="4" in="shadowSpreadOuter1" result="shadowOffsetOuter1"/><feGaussianBlur stdDeviation="9" in="shadowOffsetOuter1" result="shadowBlurOuter1"/><feComposite in="shadowBlurOuter1" in2="SourceAlpha" operator="out" result="shadowBlurOuter1"/><feColorMatrix values="0 0 0 0 0 0 0 0 0 0 0 0 0 0 0 0 0 0 0.3 0" in="shadowBlurOuter1"/></filter><linearGradient x1="100%" y1="0%" x2="0%" y2="100%" id="t"><stop stop-color="#1F1C6E" offset="0%"/><stop stop-color="#181654" offset="100%"/></linearGradient><path d="M14.525.733c2.998 2.515-.073 14.312-2.517 15.174C9.563 16.769-.497 8.96.019 5.847.536 2.735 11.53-1.782 14.525.733z" id="u"/><rect id="w" width="359" height="112" rx="12"/><filter x="-8.2%" y="-22.8%" width="116.4%" height="152.7%" filterUnits="objectBoundingBox" id="x"><feMorphology radius=".5" operator="dilate" in="SourceAlpha" result="shadowSpreadOuter1"/><feOffset dy="4" in="shadowSpreadOuter1" result="shadowOffsetOuter1"/><feGaussianBlur stdDeviation="9" in="shadowOffsetOuter1" result="shadowBlurOuter1"/><feComposite in="shadowBlurOuter1" in2="SourceAlpha" operator="out" result="shadowBlurOuter1"/><feColorMatrix values="0 0 0 0 0 0 0 0 0 0 0 0 0 0 0 0 0 0 0.3 0" in="shadowBlurOuter1"/></filter><path d="M14.525.733c2.998 2.515-.073 14.312-2.517 15.174C9.563 16.769-.497 8.96.019 5.847.536 2.735 11.53-1.782 14.525.733z" id="z"/><rect id="B" width="359" height="112" rx="12"/><filter x="-8.2%" y="-22.8%" width="116.4%" height="152.7%" filterUnits="objectBoundingBox" id="C"><feMorphology radius=".5" operator="dilate" in="SourceAlpha" result="shadowSpreadOuter1"/><feOffset dy="4" in="shadowSpreadOuter1" result="shadowOffsetOuter1"/><feGaussianBlur stdDeviation="9" in="shadowOffsetOuter1" result="shadowBlurOuter1"/><feComposite in="shadowBlurOuter1" in2="SourceAlpha" operator="out" result="shadowBlurOuter1"/><feColorMatrix values="0 0 0 0 0 0 0 0 0 0 0 0 0 0 0 0 0 0 0.3 0" in="shadowBlurOuter1"/></filter><path d="M14.525.733c2.998 2.515-.073 14.312-2.517 15.174C9.563 16.769-.497 8.96.019 5.847.536 2.735 11.53-1.782 14.525.733z" id="E"/></defs><g fill="none" fill-rule="evenodd"><path d="M524.934 322.079H528.072 41.258c32.829 0 26.031-29.377 26.031-29.377 0-16.224 13.158-29.376 29.376-29.376h431.392H117.626c40.2 0 35.384-29.376 35.384-29.376 0-16.224 13.146-29.376 29.374-29.376h406.592c16.222 0 29.373 13.148 29.373 29.376 0 16.224-13.154 29.376-29.367 29.376H521.81s-42.36.949-42.36 30.325c0 29.376 42.36 28.428 42.36 28.428h3.124-513.99c-16.222 0-29.375 13.152-29.375 29.376 0 16.227 13.152 29.376 29.375 29.376h602.522c16.222 0 29.375-13.152 29.375-29.376 0-16.228-13.151-29.376-29.375-29.376h-88.532zM39.842 380.83h566.836c-32.188 0-25.066 29.376-25.066 29.376 0 16.224-13.149 29.377-29.382 29.377H96.672c-16.228 0-29.383-13.153-29.383-29.377 0 0 0-29.376-27.447-29.376z" fill="url(#a)" transform="rotate(-47 228.707 419.77)"/><g filter="url(#b)" transform="translate(78 76)"><use fill="#1B1B1B" style="mix-blend-mode:overlay" xlink:href="#c" transform="translate(0 132.49)"/><use fill="#1B1B1B" style="mix-blend-mode:overlay" transform="matrix(-1 0 0 1 340.52 132.49)" xlink:href="#d"/><use fill="#1B1B1B" style="mix-blend-mode:overlay" xlink:href="#e" transform="translate(0 187.068)"/><use fill="#1B1B1B" style="mix-blend-mode:overlay" xlink:href="#f" transform="translate(0 82.658)"/><g><use fill="#1B1B1B" xlink:href="#g"/><use fill="#000" filter="url(#h)" xlink:href="#g"/></g><g><use fill="#323232" xlink:href="#i"/><path stroke-opacity=".1" stroke="#F2F4F5" d="M7.619 46.269c0-22.437 18.193-40.628 40.63-40.628h244.416c22.438 0 40.631 18.193 40.631 40.628v592.456c0 22.437-18.193 40.628-40.63 40.628H48.25c-22.438 0-40.631-18.193-40.631-40.628V46.27z"/></g><path d="M1.582 49.437h5.537v9.491H1.582v-9.491zm0 579.397h5.537v9.492H1.582v-9.492zM333.796 49.437h5.537v9.491h-5.537v-9.491zm0 579.397h5.537v9.492h-5.537v-9.492z" fill-opacity=".1" fill="#FFF"/><g><g transform="translate(8.305 6.328)"><use fill="#1B1B1B" xlink:href="#j"/><use fill="url(#k)" xlink:href="#j"/><path stroke="#000" d="M-.5 39.548v592.847c0 22.117 17.93 40.048 40.048 40.048h244.418c22.115 0 40.047-17.931 40.047-40.048V39.548c0-22.117-17.93-40.048-40.047-40.048H39.548C17.432-.5-.5 17.431-.5 39.548z"/></g><g transform="translate(8.305 6.328)"><use fill-opacity=".1" fill="#FFF" xlink:href="#l"/><use fill="#000" filter="url(#m)" xlink:href="#l"/></g><g transform="translate(107.179 36.385)"><circle stroke-opacity=".05" stroke="#F5F5F5" stroke-width="2" cx="4.746" cy="4.746" r="5.746"/><use fill-opacity=".1" fill="#FFF" xlink:href="#n"/><use fill="#000" filter="url(#o)" xlink:href="#n"/></g></g><g><path fill="#000" d="M21.752 78.703h296.62v527.588H21.752z"/><path fill="url(#p)" d="M0 0h296.62v527.588H0z" transform="translate(21.752 78.703)"/></g><g font-size="9" font-family="SFUIText-Regular, SF UI Text" letter-spacing="-.144" fill="#A1A1A1"><text transform="translate(37 158)"><tspan x="0" y="9">https://dribbble.com/shots/2980756-iPhone-7-Sketch-Template</tspan></text></g></g><g transform="translate(69 181)"><mask id="s" fill="#fff"><use xlink:href="#q"/></mask><g stroke-linecap="round" stroke-linejoin="round"><use fill="#000" filter="url(#r)" xlink:href="#q"/><use fill-opacity=".95" fill="#E6E7E7" xlink:href="#q"/><rect stroke-opacity=".05" stroke="#000" stroke-width=".5" x="-.25" y="-.25" width="359.5" height="112.5" rx="12"/></g><path fill="#EEEFEF" mask="url(#s)" d="M0 0h359v36H0z"/><text mask="url(#s)" font-family=".SFNSText, .SF NS Text" font-size="13" fill="#4D4D4D"><tspan x="36" y="24">ZEPHIR</tspan></text><text mask="url(#s)" font-family="SFUIText-Regular, SF UI Text" font-size="13" fill="#4D4D4D"><tspan x="319.92" y="23">now</tspan></text><text mask="url(#s)" font-family=".SFNSText, .SF NS Text" font-size="15" fill="#000"><tspan x="16" y="59">Ocean Beach will be raging tomorrow</tspan></text><text mask="url(#s)" font-family=".SFNSText, .SF NS Text" font-size="15" letter-spacing="-.24" fill="#000"><tspan x="16" y="79">Get ready to hop on your board, the latest </tspan> <tspan x="16" y="97">forecasts are in. Expect 23 knots by 3pm.</tspan></text><g transform="translate(8 8)" mask="url(#s)"><rect fill="url(#t)" width="22" height="22" rx="5"/><g transform="translate(3 3)"><mask id="v" fill="#fff"><use xlink:href="#u"/></mask><use fill-opacity=".4" fill="#FFF" xlink:href="#u"/><path d="M-.438 2.02S1.666.317 3.77.317 7.978 2.02 7.978 2.02s2.104 1.702 4.208 1.702 4.208-1.702 4.208-1.702v17.688H-.554L-.438 2.02z" fill-opacity=".55" fill="#FFF" mask="url(#v)"/><path d="M-.438 6.376S1.666 4.673 3.77 4.673s4.208 1.703 4.208 1.703 2.104 1.702 4.208 1.702 4.208-1.702 4.208-1.702v17.688H-.554l.116-17.688z" fill-opacity=".5" fill="#FFF" mask="url(#v)"/><path d="M-.438 10.732S1.666 9.029 3.77 9.029s4.208 1.703 4.208 1.703 2.104 1.702 4.208 1.702 4.208-1.702 4.208-1.702V28.42H-.554l.116-17.688z" fill="#FFF" mask="url(#v)"/></g></g></g><g opacity=".7" transform="translate(69 311)"><mask id="y" fill="#fff"><use xlink:href="#w"/></mask><g stroke-linecap="round" stroke-linejoin="round"><use fill="#000" filter="url(#x)" xlink:href="#w"/><use fill-opacity=".95" fill="#E6E7E7" xlink:href="#w"/><rect stroke-opacity=".05" stroke="#000" stroke-width=".5" x="-.25" y="-.25" width="359.5" height="112.5" rx="12"/></g><path fill="#EEEFEF" mask="url(#y)" d="M0 0h359v36H0z"/><text mask="url(#y)" font-family=".SFNSText, .SF NS Text" font-size="13" fill="#4D4D4D"><tspan x="36" y="24">ZEPHIR</tspan></text><text mask="url(#y)" font-family=".SFNSText, .SF NS Text" font-size="13" fill="#4D4D4D"><tspan x="285.935" y="24">yesterday</tspan></text><text mask="url(#y)" font-family=".SFNSText, .SF NS Text" font-size="15" fill="#000"><tspan x="16" y="59">Kelly’s Cove should be kiteable later today</tspan></text><text mask="url(#y)" font-family=".SFNSText, .SF NS Text" font-size="15" letter-spacing="-.24" fill="#000"><tspan x="16" y="79">There should be wind gusts upwards of 20 knots </tspan> <tspan x="16" y="97">with a steady 17 knots from 1pm to 4pm.</tspan></text><g transform="translate(8 8)" mask="url(#y)"><rect fill="url(#t)" width="22" height="22" rx="5"/><g transform="translate(3 3)"><mask id="A" fill="#fff"><use xlink:href="#z"/></mask><use fill-opacity=".4" fill="#FFF" xlink:href="#z"/><path d="M-.438 2.02S1.666.317 3.77.317 7.978 2.02 7.978 2.02s2.104 1.702 4.208 1.702 4.208-1.702 4.208-1.702v17.688H-.554L-.438 2.02z" fill-opacity=".55" fill="#FFF" mask="url(#A)"/><path d="M-.438 6.376S1.666 4.673 3.77 4.673s4.208 1.703 4.208 1.703 2.104 1.702 4.208 1.702 4.208-1.702 4.208-1.702v17.688H-.554l.116-17.688z" fill-opacity=".5" fill="#FFF" mask="url(#A)"/><path d="M-.438 10.732S1.666 9.029 3.77 9.029s4.208 1.703 4.208 1.703 2.104 1.702 4.208 1.702 4.208-1.702 4.208-1.702V28.42H-.554l.116-17.688z" fill="#FFF" mask="url(#A)"/></g></g></g><g opacity=".4" transform="translate(69 441)"><mask id="D" fill="#fff"><use xlink:href="#B"/></mask><g stroke-linecap="round" stroke-linejoin="round"><use fill="#000" filter="url(#C)" xlink:href="#B"/><use fill-opacity=".95" fill="#E6E7E7" xlink:href="#B"/><rect stroke-opacity=".05" stroke="#000" stroke-width=".5" x="-.25" y="-.25" width="359.5" height="112.5" rx="12"/></g><path fill="#EEEFEF" mask="url(#D)" d="M0 0h359v36H0z"/><text mask="url(#D)" font-family=".SFNSText, .SF NS Text" font-size="13" fill="#4D4D4D"><tspan x="36" y="24">ZEPHIR</tspan></text><text mask="url(#D)" font-family=".SFNSText, .SF NS Text" font-size="13" fill="#4D4D4D"><tspan x="307.777" y="24">Friday</tspan></text><text mask="url(#D)" font-family=".SFNSText, .SF NS Text" font-size="15" fill="#000"><tspan x="16" y="59">Look out for Stinson Beach this weekend</tspan></text><text mask="url(#D)" font-family=".SFNSText, .SF NS Text" font-size="15" letter-spacing="-.24" fill="#000"><tspan x="16" y="79">Exciting forecast for the next two days up North, </tspan> <tspan x="16" y="97">25 knots with gusts at 28. Get flying!</tspan></text><g transform="translate(8 8)" mask="url(#D)"><rect fill="url(#t)" width="22" height="22" rx="5"/><g transform="translate(3 3)"><mask id="F" fill="#fff"><use xlink:href="#E"/></mask><use fill-opacity=".4" fill="#FFF" xlink:href="#E"/><path d="M-.438 2.02S1.666.317 3.77.317 7.978 2.02 7.978 2.02s2.104 1.702 4.208 1.702 4.208-1.702 4.208-1.702v17.688H-.554L-.438 2.02z" fill-opacity=".55" fill="#FFF" mask="url(#F)"/><path d="M-.438 6.376S1.666 4.673 3.77 4.673s4.208 1.703 4.208 1.703 2.104 1.702 4.208 1.702 4.208-1.702 4.208-1.702v17.688H-.554l.116-17.688z" fill-opacity=".5" fill="#FFF" mask="url(#F)"/><path d="M-.438 10.732S1.666 9.029 3.77 9.029s4.208 1.703 4.208 1.703 2.104 1.702 4.208 1.702 4.208-1.702 4.208-1.702V28.42H-.554l.116-17.688z" fill="#FFF" mask="url(#F)"/></g></g></g></g></svg>