<svg width="24" height="24" viewBox="0 0 24 24" xmlns="http://www.w3.org/2000/svg" xmlns:xlink="http://www.w3.org/1999/xlink"><title>logo</title><defs><path d="M21.788 1.1c4.496 3.772-.11 21.468-3.776 22.76C14.345 25.153-.746 13.44.029 8.77.803 4.103 17.292-2.672 21.789 1.1z" id="a"/></defs><g fill="none" fill-rule="evenodd"><mask id="b" fill="#fff"><use xlink:href="#a"/></mask><use fill-opacity=".4" fill="#FFF" xlink:href="#a"/><path d="M-.657 3.03S2.499.474 5.655.474s6.312 2.554 6.312 2.554 3.156 2.555 6.312 2.555c3.157 0 6.313-2.555 6.313-2.555v26.533H-.832l.175-26.533z" fill-opacity=".55" fill="#FFF" mask="url(#b)"/><path d="M-.657 9.563S2.499 7.01 5.655 7.01s6.312 2.554 6.312 2.554 3.156 2.555 6.312 2.555c3.157 0 6.313-2.555 6.313-2.555v26.533H-.832l.175-26.533z" fill-opacity=".5" fill="#FFF" mask="url(#b)"/><path d="M-.657 16.097s3.156-2.554 6.312-2.554 6.312 2.554 6.312 2.554 3.156 2.555 6.312 2.555c3.157 0 6.313-2.555 6.313-2.555V42.63H-.832l.175-26.533z" fill="#FFF" mask="url(#b)"/></g></svg>