<?xml version="1.0" encoding="UTF-8"?>
<svg width="472px" height="680px" viewBox="0 0 472 680" version="1.1" xmlns="http://www.w3.org/2000/svg" xmlns:xlink="http://www.w3.org/1999/xlink">
    <defs>
        <linearGradient x1="90.7633945%" y1="-19.5274961%" x2="25.7468836%" y2="149.79702%" id="linearGradient-1">
            <stop stop-color="#FFAB23" offset="0%"></stop>
            <stop stop-color="#FFDD1C" offset="100%"></stop>
        </linearGradient>
        <filter x="-13.8%" y="-6.6%" width="127.6%" height="114.0%" filterUnits="objectBoundingBox" id="filter-2">
            <feOffset dx="0" dy="0" in="SourceAlpha" result="shadowOffsetOuter1"></feOffset>
            <feGaussianBlur stdDeviation="15" in="shadowOffsetOuter1" result="shadowBlurOuter1"></feGaussianBlur>
            <feColorMatrix values="0 0 0 0 0.250980392   0 0 0 0 0.250980392   0 0 0 0 0.254901961  0 0 0 0.3 0" type="matrix" in="shadowBlurOuter1" result="shadowMatrixOuter1"></feColorMatrix>
            <feMerge>
                <feMergeNode in="shadowMatrixOuter1"></feMergeNode>
                <feMergeNode in="SourceGraphic"></feMergeNode>
            </feMerge>
        </filter>
        <path d="M0,1.78665271 C0,0.914313361 0.715825208,0.207142595 1.58357821,0.207142595 L2.26236115,0.207142595 C2.60946527,0.207142595 3.16394546,1.27210158 3.16394546,1.97468993 L3.16394546,40.3430806 C3.16394546,41.0554712 2.68706941,42.1289401 2.26236115,42.1289401 L1.58357821,42.1289401 C0.708992113,42.1289401 0,41.4188985 0,40.54943 L0,1.78665271 Z" id="path-3"></path>
        <path d="M0,1.78665271 C0,0.914313361 0.715825208,0.207142595 1.58357821,0.207142595 L2.26236115,0.207142595 C2.60946527,0.207142595 3.16394546,1.27210158 3.16394546,1.97468993 L3.16394546,40.3430806 C3.16394546,41.0554712 2.68706941,42.1289401 2.26236115,42.1289401 L1.58357821,42.1289401 C0.708992113,42.1289401 0,41.4188985 0,40.54943 L0,1.78665271 Z" id="path-5"></path>
        <path d="M0,1.78665271 C0,0.914313361 0.715825208,0.207142595 1.58357821,0.207142595 L2.26236115,0.207142595 C2.60946527,0.207142595 3.16394546,1.27210158 3.16394546,1.97468993 L3.16394546,40.3430806 C3.16394546,41.0554712 2.68706941,42.1289401 2.26236115,42.1289401 L1.58357821,42.1289401 C0.708992113,42.1289401 0,41.4188985 0,40.54943 L0,1.78665271 Z" id="path-7"></path>
        <path d="M0,1.58777061 C0,0.710869118 0.715825208,4.47984479e-10 1.58357821,1.96622797e-10 L2.26236115,0 C2.60946527,0 3.16394546,1.0850774 3.16394546,1.80093852 L3.16394546,19.5370353 C3.16394546,20.2628838 2.68706941,21.3566319 2.26236115,21.3566319 L1.58357821,21.3566319 C0.708992113,21.3566319 0,20.6460585 0,19.7688613 L0,1.58777061 Z" id="path-9"></path>
        <path d="M1.58197273,229.266697 L1.58197273,639.119693 C1.58197273,664.45292 22.123207,684.994193 47.4621036,684.994193 L154.401936,684.994193 C154.930768,684.503317 155.637482,684.203206 156.410234,684.203206 L184.504889,684.203206 C185.281101,684.203206 185.987503,684.503586 186.515285,684.994193 L293.45302,684.994193 C318.792683,684.994193 339.333151,664.45548 339.333151,639.119693 L339.333151,175.468104 C338.4115,174.156477 337.751178,170.377206 337.751178,163.9474 L337.751178,143.350803 C337.751178,136.920997 338.4115,133.141726 339.333151,131.830099 L339.333151,45.8744996 C339.333151,20.5412726 318.791917,0 293.45302,0 L47.4621036,0 C22.1224403,0 1.58197273,20.5387131 1.58197273,45.8744996 L1.58197273,82.3819313 C2.29125213,84.1602704 2.76845228,87.773637 2.76845228,93.3363912 C2.76845228,98.8991453 2.29125213,102.512512 1.58197339,104.29084 L1.58197273,132.214072 C2.29125213,133.992411 2.76845228,137.605778 2.76845228,143.168532 L2.76845228,164.129671 C2.76845228,169.692425 2.29125213,173.305792 1.58197339,175.08412 L1.58197273,186.396638 C2.29125213,188.174977 2.76845228,191.788344 2.76845228,197.351098 L2.76845228,218.312237 C2.76845228,223.874991 2.29125213,227.488358 1.58197339,229.266686 Z" id="path-11"></path>
        <filter x="-2.1%" y="-0.5%" width="104.1%" height="101.8%" filterUnits="objectBoundingBox" id="filter-12">
            <feMorphology radius="2" operator="erode" in="SourceAlpha" result="shadowSpreadInner1"></feMorphology>
            <feGaussianBlur stdDeviation="1.5" in="shadowSpreadInner1" result="shadowBlurInner1"></feGaussianBlur>
            <feOffset dx="2" dy="2" in="shadowBlurInner1" result="shadowOffsetInner1"></feOffset>
            <feComposite in="shadowOffsetInner1" in2="SourceAlpha" operator="arithmetic" k2="-1" k3="1" result="shadowInnerInner1"></feComposite>
            <feColorMatrix values="0 0 0 0 1   0 0 0 0 1   0 0 0 0 1  0 0 0 0.14 0" type="matrix" in="shadowInnerInner1"></feColorMatrix>
        </filter>
        <path d="M7.11887729,46.2688449 C7.11887729,23.5547906 25.5371905,5.14141138 48.249775,5.14141138 L292.665349,5.14141138 C315.381316,5.14141138 333.796246,23.5602064 333.796246,46.2688449 L333.796246,638.725348 C333.796246,661.439402 315.377933,679.852781 292.665349,679.852781 L48.249775,679.852781 C25.5338074,679.852781 7.11887729,661.433986 7.11887729,638.725348 L7.11887729,46.2688449 L7.11887729,46.2688449 Z" id="path-13"></path>
        <linearGradient x1="50%" y1="0%" x2="50%" y2="100%" id="linearGradient-14">
            <stop stop-color="#FFFFFF" stop-opacity="0.1" offset="0%"></stop>
            <stop stop-color="#000000" stop-opacity="0.5" offset="100%"></stop>
        </linearGradient>
        <path d="M0,39.5476854 C0,17.7061019 17.7097292,0 39.5476869,0 L283.965737,0 C305.807321,0 323.513424,17.7081305 323.513424,39.5476854 L323.513424,632.395232 C323.513424,654.236816 305.803694,671.942918 283.965737,671.942918 L39.5476869,671.942918 C17.7061025,671.942918 0,654.234787 0,632.395232 L0,39.5476854 L0,39.5476854 Z" id="path-15"></path>
        <rect id="path-16" x="131.303737" y="33.2214274" width="60.9059502" height="3.95493183" rx="1.97746591"></rect>
        <filter x="-3.3%" y="-50.6%" width="106.6%" height="201.1%" filterUnits="objectBoundingBox" id="filter-17">
            <feGaussianBlur stdDeviation="1" in="SourceAlpha" result="shadowBlurInner1"></feGaussianBlur>
            <feOffset dx="0" dy="2" in="shadowBlurInner1" result="shadowOffsetInner1"></feOffset>
            <feComposite in="shadowOffsetInner1" in2="SourceAlpha" operator="arithmetic" k2="-1" k3="1" result="shadowInnerInner1"></feComposite>
            <feColorMatrix values="0 0 0 0 0   0 0 0 0 0   0 0 0 0 0  0 0 0 0.1 0" type="matrix" in="shadowInnerInner1"></feColorMatrix>
        </filter>
        <path d="M4.74591819,7.51437048 C6.27489217,7.51437048 7.51437048,6.27489217 7.51437048,4.74591819 C7.51437048,3.21694422 6.27489217,1.97746591 4.74591819,1.97746591 C3.21694422,1.97746591 1.97746591,3.21694422 1.97746591,4.74591819 C1.97746591,6.27489217 3.21694422,7.51437048 4.74591819,7.51437048 Z" id="path-18"></path>
        <filter x="-36.1%" y="-36.1%" width="172.2%" height="172.2%" filterUnits="objectBoundingBox" id="filter-19">
            <feGaussianBlur stdDeviation="1" in="SourceAlpha" result="shadowBlurInner1"></feGaussianBlur>
            <feOffset dx="0" dy="2" in="shadowBlurInner1" result="shadowOffsetInner1"></feOffset>
            <feComposite in="shadowOffsetInner1" in2="SourceAlpha" operator="arithmetic" k2="-1" k3="1" result="shadowInnerInner1"></feComposite>
            <feColorMatrix values="0 0 0 0 0   0 0 0 0 0   0 0 0 0 0  0 0 0 0.1 0" type="matrix" in="shadowInnerInner1"></feColorMatrix>
        </filter>
        <linearGradient x1="50%" y1="0%" x2="50%" y2="100%" id="linearGradient-20">
            <stop stop-color="#FFFFFF" stop-opacity="0.2" offset="0%"></stop>
            <stop stop-color="#FFFFFF" stop-opacity="0" offset="100%"></stop>
        </linearGradient>
        <rect id="path-21" x="0" y="0" width="359" height="112" rx="12"></rect>
        <filter x="-8.2%" y="-22.8%" width="116.4%" height="152.7%" filterUnits="objectBoundingBox" id="filter-23">
            <feMorphology radius="0.5" operator="dilate" in="SourceAlpha" result="shadowSpreadOuter1"></feMorphology>
            <feOffset dx="0" dy="4" in="shadowSpreadOuter1" result="shadowOffsetOuter1"></feOffset>
            <feGaussianBlur stdDeviation="9" in="shadowOffsetOuter1" result="shadowBlurOuter1"></feGaussianBlur>
            <feComposite in="shadowBlurOuter1" in2="SourceAlpha" operator="out" result="shadowBlurOuter1"></feComposite>
            <feColorMatrix values="0 0 0 0 0   0 0 0 0 0   0 0 0 0 0  0 0 0 0.3 0" type="matrix" in="shadowBlurOuter1"></feColorMatrix>
        </filter>
        <linearGradient x1="100%" y1="0%" x2="0%" y2="100%" id="linearGradient-24">
            <stop stop-color="#1F1C6E" offset="0%"></stop>
            <stop stop-color="#181654" offset="100%"></stop>
        </linearGradient>
        <path d="M14.5254408,0.732852093 C17.5225828,3.24775282 14.4521741,15.0450136 12.0077531,15.9068264 C9.56333204,16.7686392 -0.497251302,8.9597595 0.0191851726,5.84722347 C0.535621647,2.73468745 11.5282988,-1.78204863 14.5254408,0.732852093 Z" id="path-25"></path>
        <rect id="path-27" x="0" y="0" width="359" height="112" rx="12"></rect>
        <filter x="-8.2%" y="-22.8%" width="116.4%" height="152.7%" filterUnits="objectBoundingBox" id="filter-29">
            <feMorphology radius="0.5" operator="dilate" in="SourceAlpha" result="shadowSpreadOuter1"></feMorphology>
            <feOffset dx="0" dy="4" in="shadowSpreadOuter1" result="shadowOffsetOuter1"></feOffset>
            <feGaussianBlur stdDeviation="9" in="shadowOffsetOuter1" result="shadowBlurOuter1"></feGaussianBlur>
            <feComposite in="shadowBlurOuter1" in2="SourceAlpha" operator="out" result="shadowBlurOuter1"></feComposite>
            <feColorMatrix values="0 0 0 0 0   0 0 0 0 0   0 0 0 0 0  0 0 0 0.3 0" type="matrix" in="shadowBlurOuter1"></feColorMatrix>
        </filter>
        <path d="M14.5254408,0.732852093 C17.5225828,3.24775282 14.4521741,15.0450136 12.0077531,15.9068264 C9.56333204,16.7686392 -0.497251302,8.9597595 0.0191851726,5.84722347 C0.535621647,2.73468745 11.5282988,-1.78204863 14.5254408,0.732852093 Z" id="path-30"></path>
        <rect id="path-32" x="0" y="0" width="359" height="112" rx="12"></rect>
        <filter x="-8.2%" y="-22.8%" width="116.4%" height="152.7%" filterUnits="objectBoundingBox" id="filter-34">
            <feMorphology radius="0.5" operator="dilate" in="SourceAlpha" result="shadowSpreadOuter1"></feMorphology>
            <feOffset dx="0" dy="4" in="shadowSpreadOuter1" result="shadowOffsetOuter1"></feOffset>
            <feGaussianBlur stdDeviation="9" in="shadowOffsetOuter1" result="shadowBlurOuter1"></feGaussianBlur>
            <feComposite in="shadowBlurOuter1" in2="SourceAlpha" operator="out" result="shadowBlurOuter1"></feComposite>
            <feColorMatrix values="0 0 0 0 0   0 0 0 0 0   0 0 0 0 0  0 0 0 0.3 0" type="matrix" in="shadowBlurOuter1"></feColorMatrix>
        </filter>
        <path d="M14.5254408,0.732852093 C17.5225828,3.24775282 14.4521741,15.0450136 12.0077531,15.9068264 C9.56333204,16.7686392 -0.497251302,8.9597595 0.0191851726,5.84722347 C0.535621647,2.73468745 11.5282988,-1.78204863 14.5254408,0.732852093 Z" id="path-35"></path>
    </defs>
    <g id="Site" stroke="none" stroke-width="1" fill="none" fill-rule="evenodd">
        <g id="alt-zephir" transform="translate(-852.000000, -1610.000000)">
            <g id="features-2" transform="translate(-146.000000, 1435.000000)">
                <g id="Group-9" transform="translate(900.000000, 145.000000)">
                    <path d="M524.933564,322.078611 L528.057187,322.078611 C544.285468,322.078611 544.297195,322.078611 528.072407,322.078611 L41.2576114,322.078611 C74.0868213,322.078611 67.2894576,292.702387 67.2894576,292.702387 C67.2894576,276.478346 80.4473214,263.326163 96.6645627,263.326163 L528.065985,263.326163 C544.289407,263.326163 544.287243,263.326163 528.057187,263.326163 L521.809941,263.326163 C400.103702,263.326163 152.439409,263.326163 117.626304,263.326163 C157.826898,263.326163 153.009907,233.949939 153.009907,233.949939 C153.009907,217.725898 166.156217,204.573714 182.383577,204.573714 L588.975817,204.573714 C605.198447,204.573714 618.349487,217.722331 618.349487,233.949939 C618.349487,250.173979 605.194501,263.326163 588.981695,263.326163 C588.981695,263.326163 562.401286,263.326163 521.809941,263.326163 C521.809646,263.326169 479.450789,264.274872 479.450789,293.650994 C479.450789,323.027218 521.809941,322.078611 521.809941,322.078611 L524.933564,322.078611 L10.9437355,322.078611 C-5.27766651,322.078611 -18.4309915,335.230795 -18.4309915,351.454835 C-18.4309915,367.682443 -5.27947821,380.831059 10.9437355,380.831059 L613.466317,380.831059 C629.687719,380.831059 642.841044,367.678876 642.841044,351.454835 C642.841044,335.227227 629.689531,322.078611 613.466317,322.078611 L524.933564,322.078611 Z M39.8416933,380.831059 C165.939727,380.831059 485.841554,380.831059 606.67773,380.831059 C574.48951,380.831059 581.612152,410.207284 581.612152,410.207284 C581.612152,426.431324 568.463021,439.583508 552.229632,439.583508 L96.671977,439.583508 C80.4444596,439.583508 67.2894576,426.431275 67.2894576,410.207284 C67.2894576,410.207284 67.2894576,380.831059 39.8416933,380.831059 Z" id="Combined-Shape" fill="url(#linearGradient-1)" transform="translate(312.205026, 322.078611) rotate(313.000000) translate(-312.205026, -322.078611) "></path>
                    <g id="iPhone-by-Denis-Rojčyk" filter="url(#filter-2)" transform="translate(176.000000, 106.000000)">
                        <g id="frame">
                            <g id="buttons" transform="translate(0.000000, 82.658075)">
                                <g id="volume-up" transform="translate(0.000000, 49.832141)">
                                    <mask id="mask-4" fill="white">
                                        <use xlink:href="#path-3"></use>
                                    </mask>
                                    <use fill="#1B1B1B" style="mix-blend-mode: overlay;" xlink:href="#path-3"></use>
                                </g>
                                <g id="lock" transform="translate(337.355685, 49.832141)">
                                    <mask id="mask-6" fill="white">
                                        <use xlink:href="#path-5"></use>
                                    </mask>
                                    <use id="volume-up" fill="#1B1B1B" style="mix-blend-mode: overlay;" transform="translate(1.581973, 21.168041) scale(-1, 1) translate(-1.581973, -21.168041) " xlink:href="#path-5"></use>
                                </g>
                                <g id="volume-down" transform="translate(0.000000, 104.410200)">
                                    <mask id="mask-8" fill="white">
                                        <use xlink:href="#path-7"></use>
                                    </mask>
                                    <use fill="#1B1B1B" style="mix-blend-mode: overlay;" xlink:href="#path-7"></use>
                                </g>
                                <g id="lock">
                                    <mask id="mask-10" fill="white">
                                        <use xlink:href="#path-9"></use>
                                    </mask>
                                    <use fill="#1B1B1B" style="mix-blend-mode: overlay;" xlink:href="#path-9"></use>
                                </g>
                            </g>
                            <g id="frame-body">
                                <use fill="#1B1B1B" fill-rule="evenodd" xlink:href="#path-11"></use>
                                <use fill="black" fill-opacity="1" filter="url(#filter-12)" xlink:href="#path-11"></use>
                            </g>
                            <g id="frame-separator">
                                <use fill="#323232" fill-rule="evenodd" xlink:href="#path-13"></use>
                                <path stroke-opacity="0.1" stroke="#F2F4F5" stroke-width="1" d="M7.61887729,46.2688449 C7.61887729,23.832117 25.8121487,5.64141138 48.249775,5.64141138 L292.665349,5.64141138 C315.103303,5.64141138 333.296246,23.8344775 333.296246,46.2688449 L333.296246,638.725348 C333.296246,661.162076 315.102975,679.352781 292.665349,679.352781 L48.249775,679.352781 C25.811821,679.352781 7.61887729,661.159715 7.61887729,638.725348 L7.61887729,46.2688449 Z"></path>
                            </g>
                            <path d="M1.58197273,49.4366479 L7.11887729,49.4366479 L7.11887729,58.9284843 L1.58197273,58.9284843 L1.58197273,49.4366479 Z M1.58197273,628.834161 L7.11887729,628.834161 L7.11887729,638.325997 L1.58197273,638.325997 L1.58197273,628.834161 Z M333.796246,49.4366479 L339.333151,49.4366479 L339.333151,58.9284843 L333.796246,58.9284843 L333.796246,49.4366479 Z M333.796246,628.834161 L339.333151,628.834161 L339.333151,638.325997 L333.796246,638.325997 L333.796246,628.834161 Z" id="lines" fill-opacity="0.1" fill="#FFFFFF"></path>
                        </g>
                        <g id="body" transform="translate(8.305357, 6.327891)">
                            <g>
                                <use fill="#1B1B1B" fill-rule="evenodd" xlink:href="#path-15"></use>
                                <use fill="url(#linearGradient-14)" fill-rule="evenodd" xlink:href="#path-15"></use>
                                <path stroke="#000000" stroke-width="1" d="M-0.5,39.5476854 L-0.5,632.395232 C-0.5,654.511626 17.4306568,672.442918 39.5476869,672.442918 L283.965737,672.442918 C306.081082,672.442918 324.013424,654.511713 324.013424,632.395232 L324.013424,39.5476854 C324.013424,17.4312914 306.082767,-0.5 283.965737,-0.5 L39.5476869,-0.5 C17.4323413,-0.5 -0.5,17.4312048 -0.5,39.5476854 Z"></path>
                            </g>
                            <g id="repro">
                                <use fill-opacity="0.1" fill="#FFFFFF" fill-rule="evenodd" xlink:href="#path-16"></use>
                                <use fill="black" fill-opacity="1" filter="url(#filter-17)" xlink:href="#path-16"></use>
                            </g>
                            <g id="camera" transform="translate(98.873296, 30.057482)">
                                <circle id="camera-bg" stroke-opacity="0.05" stroke="#F5F5F5" stroke-width="2" cx="4.74591819" cy="4.74591819" r="5.74591819"></circle>
                                <g>
                                    <use fill-opacity="0.1" fill="#FFFFFF" fill-rule="evenodd" xlink:href="#path-18"></use>
                                    <use fill="black" fill-opacity="1" filter="url(#filter-19)" xlink:href="#path-18"></use>
                                </g>
                            </g>
                        </g>
                        <g id="screen" transform="translate(21.752125, 78.703143)">
                            <rect fill="#000000" x="0" y="0" width="296.619887" height="527.587906"></rect>
                            <rect id="shine" fill="url(#linearGradient-20)" x="0" y="0" width="296.619887" height="527.587906"></rect>
                        </g>
                        <g id="url" transform="translate(37.000000, 158.000000)" font-size="9" font-family="SFUIText-Regular, SF UI Text" letter-spacing="-0.143999979" fill="#A1A1A1" font-weight="normal">
                            <text id="https://dribbble.com">
                                <tspan x="0" y="9">https://dribbble.com/shots/2980756-iPhone-7-Sketch-Template</tspan>
                            </text>
                        </g>
                    </g>
                    <g id="banner" transform="translate(167.000000, 211.000000)">
                        <mask id="mask-22" fill="white">
                            <use xlink:href="#path-21"></use>
                        </mask>
                        <g id="bg" stroke-linecap="round" stroke-linejoin="round">
                            <use fill="black" fill-opacity="1" filter="url(#filter-23)" xlink:href="#path-21"></use>
                            <use fill-opacity="0.949999988" fill="#E6E7E7" fill-rule="evenodd" xlink:href="#path-21"></use>
                            <rect stroke-opacity="0.05" stroke="#000000" stroke-width="0.5" x="-0.25" y="-0.25" width="359.5" height="112.5" rx="12"></rect>
                        </g>
                        <rect id="top-highlight" fill="#EEEFEF" mask="url(#mask-22)" x="0" y="0" width="359" height="36"></rect>
                        <text id="ZEPHIR" mask="url(#mask-22)" font-family=".SFNSText, .SF NS Text" font-size="13" font-weight="normal" fill="#4D4D4D">
                            <tspan x="36" y="24">ZEPHIR</tspan>
                        </text>
                        <text id="now" mask="url(#mask-22)" font-family="SFUIText-Regular, SF UI Text" font-size="13" font-weight="normal" fill="#4D4D4D">
                            <tspan x="319.92041" y="23">now</tspan>
                        </text>
                        <text id="Ocean-Beach-will-be" mask="url(#mask-22)" font-family=".SFNSText, .SF NS Text" font-size="15" font-weight="normal" fill="#000000">
                            <tspan x="16" y="59">Ocean Beach will be raging tomorrow</tspan>
                        </text>
                        <text id="Get-ready-to-hop-on" mask="url(#mask-22)" font-family=".SFNSText, .SF NS Text" font-size="15" font-weight="normal" letter-spacing="-0.239999995" fill="#000000">
                            <tspan x="16" y="79">Get ready to hop on your board, the latest </tspan>
                            <tspan x="16" y="97">forecasts are in. Expect 23 knots by 3pm.</tspan>
                        </text>
                        <g id="icon" mask="url(#mask-22)">
                            <g transform="translate(8.000000, 8.000000)">
                                <rect id="Rectangle-7-Copy" fill="url(#linearGradient-24)" x="0" y="0" width="22" height="22" rx="5"></rect>
                                <g id="logo" stroke-width="1" fill="none" transform="translate(3.000000, 3.000000)">
                                    <mask id="mask-26" fill="white">
                                        <use xlink:href="#path-25"></use>
                                    </mask>
                                    <use id="Combined-Shape-Copy" fill-opacity="0.400000006" fill="#FFFFFF" xlink:href="#path-25"></use>
                                    <path d="M-0.438126366,2.01960002 C-0.438126366,2.01960002 1.66593945,0.316800003 3.77000526,0.316800003 C5.87407108,0.316800003 7.9781369,2.01960002 7.9781369,2.01960002 C7.9781369,2.01960002 10.0822027,3.72240004 12.1862685,3.72240004 C14.2903343,3.72240004 16.3944002,2.01960002 16.3944002,2.01960002 L16.3944002,19.7079042 L-0.554400005,19.7079042 L-0.438126366,2.01960002 Z" id="Line-Copy" fill-opacity="0.550000012" fill="#FFFFFF" mask="url(#mask-26)"></path>
                                    <path d="M-0.438126366,6.37560006 C-0.438126366,6.37560006 1.66593945,4.67280005 3.77000526,4.67280005 C5.87407108,4.67280005 7.9781369,6.37560006 7.9781369,6.37560006 C7.9781369,6.37560006 10.0822027,8.07840008 12.1862685,8.07840008 C14.2903343,8.07840008 16.3944002,6.37560006 16.3944002,6.37560006 L16.3944002,24.0639043 L-0.554400005,24.0639043 L-0.438126366,6.37560006 Z" id="Line-Copy-2" fill-opacity="0.5" fill="#FFFFFF" mask="url(#mask-26)"></path>
                                    <path d="M-0.438126366,10.7316001 C-0.438126366,10.7316001 1.66593945,9.02880009 3.77000526,9.02880009 C5.87407108,9.02880009 7.9781369,10.7316001 7.9781369,10.7316001 C7.9781369,10.7316001 10.0822027,12.4344001 12.1862685,12.4344001 C14.2903343,12.4344001 16.3944002,10.7316001 16.3944002,10.7316001 L16.3944002,28.4199043 L-0.554400005,28.4199043 L-0.438126366,10.7316001 Z" id="Line-Copy-3" fill="#FFFFFF" mask="url(#mask-26)"></path>
                                </g>
                            </g>
                        </g>
                    </g>
                    <g id="banner-copy" opacity="0.700000048" transform="translate(167.000000, 341.000000)">
                        <mask id="mask-28" fill="white">
                            <use xlink:href="#path-27"></use>
                        </mask>
                        <g id="bg" stroke-linecap="round" stroke-linejoin="round">
                            <use fill="black" fill-opacity="1" filter="url(#filter-29)" xlink:href="#path-27"></use>
                            <use fill-opacity="0.949999988" fill="#E6E7E7" fill-rule="evenodd" xlink:href="#path-27"></use>
                            <rect stroke-opacity="0.05" stroke="#000000" stroke-width="0.5" x="-0.25" y="-0.25" width="359.5" height="112.5" rx="12"></rect>
                        </g>
                        <rect id="top-highlight" fill="#EEEFEF" mask="url(#mask-28)" x="0" y="0" width="359" height="36"></rect>
                        <text id="ZEPHIR" mask="url(#mask-28)" font-family=".SFNSText, .SF NS Text" font-size="13" font-weight="normal" fill="#4D4D4D">
                            <tspan x="36" y="24">ZEPHIR</tspan>
                        </text>
                        <text id="yesterday" mask="url(#mask-28)" font-family=".SFNSText, .SF NS Text" font-size="13" font-weight="normal" fill="#4D4D4D">
                            <tspan x="285.935059" y="24">yesterday</tspan>
                        </text>
                        <text id="Kelly’s-Cove-should" mask="url(#mask-28)" font-family=".SFNSText, .SF NS Text" font-size="15" font-weight="normal" fill="#000000">
                            <tspan x="16" y="59">Kelly’s Cove should be kiteable later today</tspan>
                        </text>
                        <text id="There-should-be-wind" mask="url(#mask-28)" font-family=".SFNSText, .SF NS Text" font-size="15" font-weight="normal" letter-spacing="-0.239999995" fill="#000000">
                            <tspan x="16" y="79">There should be wind gusts upwards of 20 knots </tspan>
                            <tspan x="16" y="97">with a steady 17 knots from 1pm to 4pm.</tspan>
                        </text>
                        <g id="icon" mask="url(#mask-28)">
                            <g transform="translate(8.000000, 8.000000)">
                                <rect id="Rectangle-7-Copy" fill="url(#linearGradient-24)" x="0" y="0" width="22" height="22" rx="5"></rect>
                                <g id="logo" stroke-width="1" fill="none" transform="translate(3.000000, 3.000000)">
                                    <mask id="mask-31" fill="white">
                                        <use xlink:href="#path-30"></use>
                                    </mask>
                                    <use id="Combined-Shape-Copy" fill-opacity="0.400000006" fill="#FFFFFF" xlink:href="#path-30"></use>
                                    <path d="M-0.438126366,2.01960002 C-0.438126366,2.01960002 1.66593945,0.316800003 3.77000526,0.316800003 C5.87407108,0.316800003 7.9781369,2.01960002 7.9781369,2.01960002 C7.9781369,2.01960002 10.0822027,3.72240004 12.1862685,3.72240004 C14.2903343,3.72240004 16.3944002,2.01960002 16.3944002,2.01960002 L16.3944002,19.7079042 L-0.554400005,19.7079042 L-0.438126366,2.01960002 Z" id="Line-Copy" fill-opacity="0.550000012" fill="#FFFFFF" mask="url(#mask-31)"></path>
                                    <path d="M-0.438126366,6.37560006 C-0.438126366,6.37560006 1.66593945,4.67280005 3.77000526,4.67280005 C5.87407108,4.67280005 7.9781369,6.37560006 7.9781369,6.37560006 C7.9781369,6.37560006 10.0822027,8.07840008 12.1862685,8.07840008 C14.2903343,8.07840008 16.3944002,6.37560006 16.3944002,6.37560006 L16.3944002,24.0639043 L-0.554400005,24.0639043 L-0.438126366,6.37560006 Z" id="Line-Copy-2" fill-opacity="0.5" fill="#FFFFFF" mask="url(#mask-31)"></path>
                                    <path d="M-0.438126366,10.7316001 C-0.438126366,10.7316001 1.66593945,9.02880009 3.77000526,9.02880009 C5.87407108,9.02880009 7.9781369,10.7316001 7.9781369,10.7316001 C7.9781369,10.7316001 10.0822027,12.4344001 12.1862685,12.4344001 C14.2903343,12.4344001 16.3944002,10.7316001 16.3944002,10.7316001 L16.3944002,28.4199043 L-0.554400005,28.4199043 L-0.438126366,10.7316001 Z" id="Line-Copy-3" fill="#FFFFFF" mask="url(#mask-31)"></path>
                                </g>
                            </g>
                        </g>
                    </g>
                    <g id="banner-copy-2" opacity="0.4" transform="translate(167.000000, 471.000000)">
                        <mask id="mask-33" fill="white">
                            <use xlink:href="#path-32"></use>
                        </mask>
                        <g id="bg" stroke-linecap="round" stroke-linejoin="round">
                            <use fill="black" fill-opacity="1" filter="url(#filter-34)" xlink:href="#path-32"></use>
                            <use fill-opacity="0.949999988" fill="#E6E7E7" fill-rule="evenodd" xlink:href="#path-32"></use>
                            <rect stroke-opacity="0.05" stroke="#000000" stroke-width="0.5" x="-0.25" y="-0.25" width="359.5" height="112.5" rx="12"></rect>
                        </g>
                        <rect id="top-highlight" fill="#EEEFEF" mask="url(#mask-33)" x="0" y="0" width="359" height="36"></rect>
                        <text id="ZEPHIR" mask="url(#mask-33)" font-family=".SFNSText, .SF NS Text" font-size="13" font-weight="normal" fill="#4D4D4D">
                            <tspan x="36" y="24">ZEPHIR</tspan>
                        </text>
                        <text id="Friday" mask="url(#mask-33)" font-family=".SFNSText, .SF NS Text" font-size="13" font-weight="normal" fill="#4D4D4D">
                            <tspan x="307.777344" y="24">Friday</tspan>
                        </text>
                        <text id="Look-out-for-Stinson" mask="url(#mask-33)" font-family=".SFNSText, .SF NS Text" font-size="15" font-weight="normal" fill="#000000">
                            <tspan x="16" y="59">Look out for Stinson Beach this weekend</tspan>
                        </text>
                        <text id="Exciting-forecast-fo" mask="url(#mask-33)" font-family=".SFNSText, .SF NS Text" font-size="15" font-weight="normal" letter-spacing="-0.239999995" fill="#000000">
                            <tspan x="16" y="79">Exciting forecast for the next two days up North, </tspan>
                            <tspan x="16" y="97">25 knots with gusts at 28. Get flying!</tspan>
                        </text>
                        <g id="icon" mask="url(#mask-33)">
                            <g transform="translate(8.000000, 8.000000)">
                                <rect id="Rectangle-7-Copy" fill="url(#linearGradient-24)" x="0" y="0" width="22" height="22" rx="5"></rect>
                                <g id="logo" stroke-width="1" fill="none" transform="translate(3.000000, 3.000000)">
                                    <mask id="mask-36" fill="white">
                                        <use xlink:href="#path-35"></use>
                                    </mask>
                                    <use id="Combined-Shape-Copy" fill-opacity="0.400000006" fill="#FFFFFF" xlink:href="#path-35"></use>
                                    <path d="M-0.438126366,2.01960002 C-0.438126366,2.01960002 1.66593945,0.316800003 3.77000526,0.316800003 C5.87407108,0.316800003 7.9781369,2.01960002 7.9781369,2.01960002 C7.9781369,2.01960002 10.0822027,3.72240004 12.1862685,3.72240004 C14.2903343,3.72240004 16.3944002,2.01960002 16.3944002,2.01960002 L16.3944002,19.7079042 L-0.554400005,19.7079042 L-0.438126366,2.01960002 Z" id="Line-Copy" fill-opacity="0.550000012" fill="#FFFFFF" mask="url(#mask-36)"></path>
                                    <path d="M-0.438126366,6.37560006 C-0.438126366,6.37560006 1.66593945,4.67280005 3.77000526,4.67280005 C5.87407108,4.67280005 7.9781369,6.37560006 7.9781369,6.37560006 C7.9781369,6.37560006 10.0822027,8.07840008 12.1862685,8.07840008 C14.2903343,8.07840008 16.3944002,6.37560006 16.3944002,6.37560006 L16.3944002,24.0639043 L-0.554400005,24.0639043 L-0.438126366,6.37560006 Z" id="Line-Copy-2" fill-opacity="0.5" fill="#FFFFFF" mask="url(#mask-36)"></path>
                                    <path d="M-0.438126366,10.7316001 C-0.438126366,10.7316001 1.66593945,9.02880009 3.77000526,9.02880009 C5.87407108,9.02880009 7.9781369,10.7316001 7.9781369,10.7316001 C7.9781369,10.7316001 10.0822027,12.4344001 12.1862685,12.4344001 C14.2903343,12.4344001 16.3944002,10.7316001 16.3944002,10.7316001 L16.3944002,28.4199043 L-0.554400005,28.4199043 L-0.438126366,10.7316001 Z" id="Line-Copy-3" fill="#FFFFFF" mask="url(#mask-36)"></path>
                                </g>
                            </g>
                        </g>
                    </g>
                </g>
            </g>
        </g>
    </g>
</svg>