<?xml version="1.0" encoding="UTF-8"?>
<svg width="24px" height="24px" viewBox="0 0 24 24" version="1.1" xmlns="http://www.w3.org/2000/svg" xmlns:xlink="http://www.w3.org/1999/xlink">
    <!-- Generator: Sketch 43.2 (39069) - http://www.bohemiancoding.com/sketch -->
    <title>logo</title>
    <desc>Created with Sketch.</desc>
    <defs>
        <path d="M21.7881612,1.09927814 C26.2838741,4.87162922 21.6782611,22.5675203 18.0116296,23.8602395 C14.3449981,25.1529588 -0.745876953,13.4396393 0.028777759,8.77083521 C0.803432471,4.10203117 17.2924482,-2.67307294 21.7881612,1.09927814 Z" id="path-1"></path>
    </defs>
    <g id="Page-1" stroke="none" stroke-width="1" fill="none" fill-rule="evenodd">
        <g id="zephir" transform="translate(-160.000000, -95.000000)">
            <g id="splash" transform="translate(-139.000000, -50.000000)">
                <g id="menu" transform="translate(299.000000, 132.000000)">
                    <g id="logo" transform="translate(0.000000, 13.000000)">
                        <mask id="mask-2" fill="white">
                            <use xlink:href="#path-1"></use>
                        </mask>
                        <use id="Combined-Shape-Copy" fill-opacity="0.400000006" fill="#FFFFFF" xlink:href="#path-1"></use>
                        <path d="M-0.657189549,3.02940003 C-0.657189549,3.02940003 2.49890917,0.475200005 5.6550079,0.475200005 C8.81110662,0.475200005 11.9672053,3.02940003 11.9672053,3.02940003 C11.9672053,3.02940003 15.1233041,5.58360005 18.2794028,5.58360005 C21.4355015,5.58360005 24.5916002,3.02940003 24.5916002,3.02940003 L24.5916002,29.5618564 L-0.831600008,29.5618564 L-0.657189549,3.02940003 Z" id="Line-Copy" fill-opacity="0.550000012" fill="#FFFFFF" mask="url(#mask-2)"></path>
                        <path d="M-0.657189549,9.56340009 C-0.657189549,9.56340009 2.49890917,7.00920007 5.6550079,7.00920007 C8.81110662,7.00920007 11.9672053,9.56340009 11.9672053,9.56340009 C11.9672053,9.56340009 15.1233041,12.1176001 18.2794028,12.1176001 C21.4355015,12.1176001 24.5916002,9.56340009 24.5916002,9.56340009 L24.5916002,36.0958564 L-0.831600008,36.0958564 L-0.657189549,9.56340009 Z" id="Line-Copy-2" fill-opacity="0.5" fill="#FFFFFF" mask="url(#mask-2)"></path>
                        <path d="M-0.657189549,16.0974002 C-0.657189549,16.0974002 2.49890917,13.5432001 5.6550079,13.5432001 C8.81110662,13.5432001 11.9672053,16.0974002 11.9672053,16.0974002 C11.9672053,16.0974002 15.1233041,18.6516002 18.2794028,18.6516002 C21.4355015,18.6516002 24.5916002,16.0974002 24.5916002,16.0974002 L24.5916002,42.6298565 L-0.831600008,42.6298565 L-0.657189549,16.0974002 Z" id="Line-Copy-3" fill="#FFFFFF" mask="url(#mask-2)"></path>
                    </g>
                </g>
            </g>
        </g>
    </g>
</svg>